<svg xmlns="http://www.w3.org/2000/svg" width="96" height="96" viewBox="0 0 96 96">
  <rect width="96" height="96" fill="#fff" rx="4"/>
  <!-- outer border -->
  <rect x="4" y="4" width="88" height="88" rx="2" fill="none" stroke="#1a2333" stroke-width="3"/>
  <!-- top-left finder -->
  <rect x="10" y="10" width="26" height="26" rx="1" fill="#1a2333"/>
  <rect x="15" y="15" width="16" height="16" rx="1" fill="#fff"/>
  <rect x="19" y="19" width="8" height="8" fill="#1a2333"/>
  <!-- top-right finder -->
  <rect x="60" y="10" width="26" height="26" rx="1" fill="#1a2333"/>
  <rect x="65" y="15" width="16" height="16" rx="1" fill="#fff"/>
  <rect x="69" y="19" width="8" height="8" fill="#1a2333"/>
  <!-- bottom-left finder -->
  <rect x="10" y="60" width="26" height="26" rx="1" fill="#1a2333"/>
  <rect x="15" y="65" width="16" height="16" rx="1" fill="#fff"/>
  <rect x="19" y="69" width="8" height="8" fill="#1a2333"/>
  <!-- data dots -->
  <rect x="44" y="10" width="6" height="6" fill="#1a2333"/>
  <rect x="52" y="10" width="6" height="6" fill="#1a2333"/>
  <rect x="44" y="18" width="6" height="6" fill="#1a2333"/>
  <rect x="44" y="44" width="6" height="6" fill="#1a2333"/>
  <rect x="52" y="52" width="6" height="6" fill="#1a2333"/>
  <rect x="60" y="44" width="6" height="6" fill="#1a2333"/>
  <rect x="68" y="52" width="6" height="6" fill="#1a2333"/>
  <rect x="60" y="60" width="6" height="6" fill="#1a2333"/>
  <rect x="76" y="44" width="6" height="6" fill="#1a2333"/>
  <rect x="44" y="60" width="6" height="6" fill="#1a2333"/>
  <rect x="44" y="68" width="6" height="6" fill="#1a2333"/>
  <rect x="52" y="76" width="6" height="6" fill="#1a2333"/>
  <rect x="44" y="76" width="6" height="6" fill="#1a2333"/>
</svg>
